# MagicaVoxel @ ephtracy

# material
mtllib WallTOp.mtl
usemtl palette

# normals
vn -1 0 0
vn 1 0 0
vn 0 0 1
vn 0 0 -1
vn 0 -1 0
vn 0 1 0

# texcoords
vt 0.0136719 0.5
vt 0.130859 0.5
vt 0.173828 0.5
vt 0.244141 0.5
vt 0.294922 0.5
vt 0.330078 0.5
vt 0.400391 0.5
vt 0.607422 0.5
vt 0.775391 0.5

# verts
v -14.5 0 1.5
v -14.5 0 -1.5
v -14.5 3 1.5
v -14.5 3 -1.5
v -11.5 1 1.5
v -11.5 1 0.5
v -11.5 1 -1.5
v -11.5 2 1.5
v -11.5 2 0.5
v -11.5 2 -1.5
v -10.5 0 -0.5
v -10.5 0 -1.5
v -10.5 1 -0.5
v -10.5 1 -1.5
v -8.5 1 1.5
v -8.5 1 0.5
v -8.5 1 -1.5
v -8.5 2 1.5
v -8.5 2 0.5
v -8.5 2 -1.5
v -5.5 1 1.5
v -5.5 1 0.5
v -5.5 1 -1.5
v -5.5 2 1.5
v -5.5 2 0.5
v -5.5 2 -1.5
v -2.5 1 1.5
v -2.5 1 0.5
v -2.5 1 -1.5
v -2.5 2 1.5
v -2.5 2 0.5
v -2.5 2 -1.5
v 0.5 0 0.5
v 0.5 0 -0.5
v 0.5 1 1.5
v 0.5 1 0.5
v 0.5 1 -0.5
v 0.5 1 -1.5
v 0.5 2 1.5
v 0.5 2 0.5
v 0.5 2 -0.5
v 0.5 2 -1.5
v 0.5 3 0.5
v 0.5 3 -0.5
v 1.5 1 0.5
v 1.5 1 -0.5
v 1.5 2 0.5
v 1.5 2 -0.5
v 3.5 1 1.5
v 3.5 1 0.5
v 3.5 1 -1.5
v 3.5 2 1.5
v 3.5 2 0.5
v 3.5 2 -1.5
v 6.5 1 1.5
v 6.5 1 0.5
v 6.5 1 -0.5
v 6.5 2 1.5
v 6.5 2 0.5
v 6.5 2 -0.5
v 9.5 1 1.5
v 9.5 1 0.5
v 9.5 1 -1.5
v 9.5 2 1.5
v 9.5 2 0.5
v 9.5 2 -1.5
v 12.5 1 1.5
v 12.5 1 0.5
v 12.5 1 -1.5
v 12.5 2 1.5
v 12.5 2 0.5
v 12.5 2 -1.5
v -12.5 1 1.5
v -12.5 1 0.5
v -12.5 1 -1.5
v -12.5 2 1.5
v -12.5 2 0.5
v -12.5 2 -1.5
v -11.5 0 -0.5
v -11.5 0 -1.5
v -11.5 1 -0.5
v -11.5 1 -1.5
v -9.5 1 1.5
v -9.5 1 0.5
v -9.5 1 -1.5
v -9.5 2 1.5
v -9.5 2 0.5
v -9.5 2 -1.5
v -6.5 1 1.5
v -6.5 1 0.5
v -6.5 1 -1.5
v -6.5 2 1.5
v -6.5 2 0.5
v -6.5 2 -1.5
v -3.5 1 1.5
v -3.5 1 0.5
v -3.5 1 -1.5
v -3.5 2 1.5
v -3.5 2 0.5
v -3.5 2 -1.5
v -1.5 1 0.5
v -1.5 1 -0.5
v -1.5 2 0.5
v -1.5 2 -0.5
v -0.5 0 0.5
v -0.5 0 -0.5
v -0.5 1 1.5
v -0.5 1 0.5
v -0.5 1 -0.5
v -0.5 1 -1.5
v -0.5 2 1.5
v -0.5 2 0.5
v -0.5 2 -0.5
v -0.5 2 -1.5
v -0.5 3 0.5
v -0.5 3 -0.5
v 2.5 1 1.5
v 2.5 1 0.5
v 2.5 1 -1.5
v 2.5 2 1.5
v 2.5 2 0.5
v 2.5 2 -1.5
v 5.5 1 1.5
v 5.5 1 0.5
v 5.5 1 -1.5
v 5.5 2 1.5
v 5.5 2 0.5
v 5.5 2 -1.5
v 8.5 1 1.5
v 8.5 1 0.5
v 8.5 1 -0.5
v 8.5 2 1.5
v 8.5 2 0.5
v 8.5 2 -0.5
v 11.5 1 1.5
v 11.5 1 0.5
v 11.5 1 -1.5
v 11.5 2 1.5
v 11.5 2 0.5
v 11.5 2 -1.5
v 14.5 0 1.5
v 14.5 0 -1.5
v 14.5 3 1.5
v 14.5 3 -1.5
v -14.5 0 1.5
v -14.5 3 1.5
v -13.5 0 1.5
v -13.5 3 1.5
v -12.5 1 1.5
v -12.5 2 1.5
v -11.5 1 1.5
v -11.5 2 1.5
v -10.5 0 1.5
v -10.5 3 1.5
v -9.5 1 1.5
v -9.5 2 1.5
v -8.5 1 1.5
v -8.5 2 1.5
v -7.5 0 1.5
v -7.5 3 1.5
v -6.5 1 1.5
v -6.5 2 1.5
v -5.5 1 1.5
v -5.5 2 1.5
v -4.5 0 1.5
v -4.5 3 1.5
v -3.5 1 1.5
v -3.5 2 1.5
v -2.5 1 1.5
v -2.5 2 1.5
v -1.5 0 1.5
v -1.5 3 1.5
v -0.5 1 1.5
v -0.5 2 1.5
v 0.5 1 1.5
v 0.5 2 1.5
v 1.5 0 1.5
v 1.5 3 1.5
v 2.5 1 1.5
v 2.5 2 1.5
v 3.5 1 1.5
v 3.5 2 1.5
v 4.5 0 1.5
v 4.5 3 1.5
v 5.5 1 1.5
v 5.5 2 1.5
v 6.5 1 1.5
v 6.5 2 1.5
v 7.5 0 1.5
v 7.5 3 1.5
v 8.5 1 1.5
v 8.5 2 1.5
v 9.5 1 1.5
v 9.5 2 1.5
v 10.5 0 1.5
v 10.5 3 1.5
v 11.5 1 1.5
v 11.5 2 1.5
v 12.5 1 1.5
v 12.5 2 1.5
v 13.5 0 1.5
v 13.5 3 1.5
v 14.5 0 1.5
v 14.5 3 1.5
v -1.5 1 -0.5
v -1.5 2 -0.5
v -0.5 0 -0.5
v -0.5 1 -0.5
v -0.5 2 -0.5
v -0.5 3 -0.5
v 0.5 0 -0.5
v 0.5 1 -0.5
v 0.5 2 -0.5
v 0.5 3 -0.5
v 1.5 1 -0.5
v 1.5 2 -0.5
v -1.5 1 0.5
v -1.5 2 0.5
v -0.5 0 0.5
v -0.5 1 0.5
v -0.5 2 0.5
v -0.5 3 0.5
v 0.5 0 0.5
v 0.5 1 0.5
v 0.5 2 0.5
v 0.5 3 0.5
v 1.5 1 0.5
v 1.5 2 0.5
v -11.5 0 -0.5
v -11.5 1 -0.5
v -10.5 0 -0.5
v -10.5 1 -0.5
v 6.5 1 -0.5
v 6.5 2 -0.5
v 7.5 1 -0.5
v 7.5 2 -0.5
v 8.5 1 -0.5
v 8.5 2 -0.5
v -14.5 0 -1.5
v -14.5 3 -1.5
v -12.5 1 -1.5
v -12.5 2 -1.5
v -11.5 0 -1.5
v -11.5 1 -1.5
v -11.5 2 -1.5
v -10.5 0 -1.5
v -10.5 1 -1.5
v -9.5 1 -1.5
v -9.5 2 -1.5
v -8.5 1 -1.5
v -8.5 2 -1.5
v -6.5 1 -1.5
v -6.5 2 -1.5
v -5.5 1 -1.5
v -5.5 2 -1.5
v -3.5 1 -1.5
v -3.5 2 -1.5
v -2.5 1 -1.5
v -2.5 2 -1.5
v -1.5 0 -1.5
v -1.5 3 -1.5
v -0.5 1 -1.5
v -0.5 2 -1.5
v 0.5 1 -1.5
v 0.5 2 -1.5
v 1.5 0 -1.5
v 1.5 3 -1.5
v 2.5 1 -1.5
v 2.5 2 -1.5
v 3.5 1 -1.5
v 3.5 2 -1.5
v 4.5 1 -1.5
v 4.5 2 -1.5
v 5.5 1 -1.5
v 5.5 2 -1.5
v 9.5 0 -1.5
v 9.5 1 -1.5
v 9.5 2 -1.5
v 10.5 0 -1.5
v 10.5 2 -1.5
v 11.5 1 -1.5
v 11.5 2 -1.5
v 12.5 1 -1.5
v 12.5 2 -1.5
v 14.5 0 -1.5
v 14.5 3 -1.5
v -14.5 0 1.5
v -13.5 0 1.5
v -10.5 0 1.5
v -7.5 0 1.5
v -4.5 0 1.5
v -1.5 0 1.5
v 1.5 0 1.5
v 4.5 0 1.5
v 7.5 0 1.5
v 10.5 0 1.5
v 13.5 0 1.5
v 14.5 0 1.5
v -13.5 0 0.5
v -10.5 0 0.5
v -7.5 0 0.5
v -4.5 0 0.5
v -1.5 0 0.5
v -0.5 0 0.5
v 0.5 0 0.5
v 1.5 0 0.5
v 4.5 0 0.5
v 7.5 0 0.5
v 10.5 0 0.5
v 13.5 0 0.5
v -11.5 0 -0.5
v -10.5 0 -0.5
v -0.5 0 -0.5
v 0.5 0 -0.5
v 9.5 0 -0.5
v 10.5 0 -0.5
v -14.5 0 -1.5
v -11.5 0 -1.5
v -10.5 0 -1.5
v -1.5 0 -1.5
v 1.5 0 -1.5
v 9.5 0 -1.5
v 10.5 0 -1.5
v 14.5 0 -1.5
v -11.5 1 -0.5
v -10.5 1 -0.5
v -11.5 1 -1.5
v -10.5 1 -1.5
v -12.5 2 1.5
v -11.5 2 1.5
v -9.5 2 1.5
v -8.5 2 1.5
v -6.5 2 1.5
v -5.5 2 1.5
v -3.5 2 1.5
v -2.5 2 1.5
v -0.5 2 1.5
v 0.5 2 1.5
v 2.5 2 1.5
v 3.5 2 1.5
v 5.5 2 1.5
v 6.5 2 1.5
v 8.5 2 1.5
v 9.5 2 1.5
v 11.5 2 1.5
v 12.5 2 1.5
v -12.5 2 0.5
v -11.5 2 0.5
v -9.5 2 0.5
v -8.5 2 0.5
v -6.5 2 0.5
v -5.5 2 0.5
v -3.5 2 0.5
v -2.5 2 0.5
v -1.5 2 0.5
v -0.5 2 0.5
v 0.5 2 0.5
v 1.5 2 0.5
v 2.5 2 0.5
v 3.5 2 0.5
v 5.5 2 0.5
v 6.5 2 0.5
v 8.5 2 0.5
v 9.5 2 0.5
v 11.5 2 0.5
v 12.5 2 0.5
v -1.5 2 -0.5
v -0.5 2 -0.5
v 0.5 2 -0.5
v 1.5 2 -0.5
v 6.5 2 -0.5
v 7.5 2 -0.5
v 8.5 2 -0.5
v -12.5 2 -1.5
v -11.5 2 -1.5
v -9.5 2 -1.5
v -8.5 2 -1.5
v -6.5 2 -1.5
v -5.5 2 -1.5
v -3.5 2 -1.5
v -2.5 2 -1.5
v -0.5 2 -1.5
v 0.5 2 -1.5
v 2.5 2 -1.5
v 3.5 2 -1.5
v 5.5 2 -1.5
v 9.5 2 -1.5
v 11.5 2 -1.5
v 12.5 2 -1.5
v -12.5 1 1.5
v -11.5 1 1.5
v -9.5 1 1.5
v -8.5 1 1.5
v -6.5 1 1.5
v -5.5 1 1.5
v -3.5 1 1.5
v -2.5 1 1.5
v -0.5 1 1.5
v 0.5 1 1.5
v 2.5 1 1.5
v 3.5 1 1.5
v 5.5 1 1.5
v 6.5 1 1.5
v 8.5 1 1.5
v 9.5 1 1.5
v 11.5 1 1.5
v 12.5 1 1.5
v -12.5 1 0.5
v -11.5 1 0.5
v -9.5 1 0.5
v -8.5 1 0.5
v -6.5 1 0.5
v -5.5 1 0.5
v -3.5 1 0.5
v -2.5 1 0.5
v -1.5 1 0.5
v -0.5 1 0.5
v 0.5 1 0.5
v 1.5 1 0.5
v 2.5 1 0.5
v 3.5 1 0.5
v 5.5 1 0.5
v 6.5 1 0.5
v 8.5 1 0.5
v 9.5 1 0.5
v 11.5 1 0.5
v 12.5 1 0.5
v -1.5 1 -0.5
v -0.5 1 -0.5
v 0.5 1 -0.5
v 1.5 1 -0.5
v 6.5 1 -0.5
v 7.5 1 -0.5
v 8.5 1 -0.5
v -12.5 1 -1.5
v -11.5 1 -1.5
v -9.5 1 -1.5
v -8.5 1 -1.5
v -6.5 1 -1.5
v -5.5 1 -1.5
v -3.5 1 -1.5
v -2.5 1 -1.5
v -0.5 1 -1.5
v 0.5 1 -1.5
v 2.5 1 -1.5
v 3.5 1 -1.5
v 5.5 1 -1.5
v 9.5 1 -1.5
v 11.5 1 -1.5
v 12.5 1 -1.5
v -14.5 3 1.5
v -13.5 3 1.5
v -10.5 3 1.5
v -7.5 3 1.5
v -4.5 3 1.5
v -1.5 3 1.5
v 1.5 3 1.5
v 4.5 3 1.5
v 7.5 3 1.5
v 10.5 3 1.5
v 13.5 3 1.5
v 14.5 3 1.5
v -13.5 3 0.5
v -10.5 3 0.5
v -7.5 3 0.5
v -4.5 3 0.5
v -1.5 3 0.5
v -0.5 3 0.5
v 0.5 3 0.5
v 1.5 3 0.5
v 4.5 3 0.5
v 7.5 3 0.5
v 10.5 3 0.5
v 13.5 3 0.5
v -0.5 3 -0.5
v 0.5 3 -0.5
v -14.5 3 -1.5
v -1.5 3 -1.5
v 1.5 3 -1.5
v 14.5 3 -1.5

# faces
f 3/3/1 2/3/1 1/3/1
f 4/3/1 2/3/1 3/3/1
f 8/1/1 6/1/1 5/1/1
f 9/3/1 7/3/1 6/3/1
f 9/1/1 6/1/1 8/1/1
f 10/3/1 7/3/1 9/3/1
f 13/3/1 12/3/1 11/3/1
f 14/3/1 12/3/1 13/3/1
f 18/6/1 16/6/1 15/6/1
f 19/3/1 17/3/1 16/3/1
f 19/6/1 16/6/1 18/6/1
f 20/3/1 17/3/1 19/3/1
f 24/7/1 22/7/1 21/7/1
f 25/3/1 23/3/1 22/3/1
f 25/7/1 22/7/1 24/7/1
f 26/3/1 23/3/1 25/3/1
f 30/2/1 28/2/1 27/2/1
f 31/3/1 29/3/1 28/3/1
f 31/2/1 28/2/1 30/2/1
f 32/3/1 29/3/1 31/3/1
f 36/6/1 34/6/1 33/6/1
f 37/6/1 34/6/1 36/6/1
f 39/6/1 36/6/1 35/6/1
f 40/6/1 36/6/1 39/6/1
f 41/6/1 38/6/1 37/6/1
f 42/6/1 38/6/1 41/6/1
f 43/6/1 41/6/1 40/6/1
f 44/6/1 41/6/1 43/6/1
f 47/3/1 46/3/1 45/3/1
f 48/3/1 46/3/1 47/3/1
f 52/4/1 50/4/1 49/4/1
f 52/4/1 51/4/1 50/4/1
f 53/4/1 51/4/1 52/4/1
f 54/4/1 51/4/1 53/4/1
f 58/5/1 56/5/1 55/5/1
f 59/4/1 57/4/1 56/4/1
f 59/5/1 56/5/1 58/5/1
f 60/4/1 57/4/1 59/4/1
f 64/9/1 62/9/1 61/9/1
f 65/4/1 63/4/1 62/4/1
f 65/9/1 62/9/1 64/9/1
f 66/4/1 63/4/1 65/4/1
f 70/8/1 68/8/1 67/8/1
f 71/3/1 69/3/1 68/3/1
f 71/8/1 68/8/1 70/8/1
f 72/3/1 69/3/1 71/3/1
f 73/1/2 74/1/2 76/1/2
f 74/3/2 75/3/2 77/3/2
f 76/1/2 74/1/2 77/1/2
f 77/3/2 75/3/2 78/3/2
f 79/3/2 80/3/2 81/3/2
f 81/3/2 80/3/2 82/3/2
f 83/6/2 84/6/2 86/6/2
f 84/3/2 85/3/2 87/3/2
f 86/6/2 84/6/2 87/6/2
f 87/3/2 85/3/2 88/3/2
f 89/7/2 90/7/2 92/7/2
f 90/3/2 91/3/2 93/3/2
f 92/7/2 90/7/2 93/7/2
f 93/3/2 91/3/2 94/3/2
f 95/2/2 96/2/2 98/2/2
f 96/3/2 97/3/2 99/3/2
f 98/2/2 96/2/2 99/2/2
f 99/3/2 97/3/2 100/3/2
f 101/3/2 102/3/2 103/3/2
f 103/3/2 102/3/2 104/3/2
f 105/6/2 106/6/2 108/6/2
f 108/6/2 106/6/2 109/6/2
f 107/6/2 108/6/2 111/6/2
f 111/6/2 108/6/2 112/6/2
f 109/6/2 110/6/2 113/6/2
f 113/6/2 110/6/2 114/6/2
f 112/6/2 113/6/2 115/6/2
f 115/6/2 113/6/2 116/6/2
f 117/4/2 118/4/2 120/4/2
f 118/3/2 119/3/2 121/3/2
f 120/4/2 118/4/2 121/4/2
f 121/3/2 119/3/2 122/3/2
f 123/5/2 124/5/2 126/5/2
f 124/3/2 125/3/2 127/3/2
f 126/5/2 124/5/2 127/5/2
f 127/3/2 125/3/2 128/3/2
f 129/9/2 130/9/2 132/9/2
f 130/3/2 131/3/2 133/3/2
f 132/9/2 130/9/2 133/9/2
f 133/3/2 131/3/2 134/3/2
f 135/8/2 136/8/2 138/8/2
f 136/3/2 137/3/2 139/3/2
f 138/8/2 136/8/2 139/8/2
f 139/3/2 137/3/2 140/3/2
f 141/3/2 142/3/2 143/3/2
f 143/3/2 142/3/2 144/3/2
f 147/3/3 146/3/3 145/3/3
f 148/3/3 146/3/3 147/3/3
f 149/1/3 148/1/3 147/1/3
f 150/1/3 148/1/3 149/1/3
f 151/1/3 149/1/3 147/1/3
f 152/1/3 148/1/3 150/1/3
f 153/1/3 151/1/3 147/1/3
f 153/1/3 152/1/3 151/1/3
f 154/1/3 148/1/3 152/1/3
f 154/1/3 152/1/3 153/1/3
f 155/6/3 154/6/3 153/6/3
f 156/6/3 154/6/3 155/6/3
f 157/6/3 155/6/3 153/6/3
f 158/6/3 154/6/3 156/6/3
f 159/6/3 157/6/3 153/6/3
f 159/6/3 158/6/3 157/6/3
f 160/6/3 154/6/3 158/6/3
f 160/6/3 158/6/3 159/6/3
f 161/7/3 160/7/3 159/7/3
f 162/7/3 160/7/3 161/7/3
f 163/7/3 161/7/3 159/7/3
f 164/7/3 160/7/3 162/7/3
f 165/7/3 163/7/3 159/7/3
f 165/7/3 164/7/3 163/7/3
f 166/7/3 160/7/3 164/7/3
f 166/7/3 164/7/3 165/7/3
f 167/2/3 166/2/3 165/2/3
f 168/2/3 166/2/3 167/2/3
f 169/2/3 167/2/3 165/2/3
f 170/2/3 166/2/3 168/2/3
f 171/2/3 169/2/3 165/2/3
f 171/2/3 170/2/3 169/2/3
f 172/2/3 166/2/3 170/2/3
f 172/2/3 170/2/3 171/2/3
f 173/6/3 172/6/3 171/6/3
f 174/6/3 172/6/3 173/6/3
f 175/6/3 173/6/3 171/6/3
f 176/6/3 172/6/3 174/6/3
f 177/6/3 175/6/3 171/6/3
f 177/6/3 176/6/3 175/6/3
f 178/6/3 172/6/3 176/6/3
f 178/6/3 176/6/3 177/6/3
f 179/4/3 178/4/3 177/4/3
f 180/4/3 178/4/3 179/4/3
f 181/4/3 179/4/3 177/4/3
f 182/4/3 178/4/3 180/4/3
f 183/4/3 181/4/3 177/4/3
f 183/4/3 182/4/3 181/4/3
f 184/4/3 178/4/3 182/4/3
f 184/4/3 182/4/3 183/4/3
f 185/5/3 184/5/3 183/5/3
f 186/5/3 184/5/3 185/5/3
f 187/5/3 185/5/3 183/5/3
f 188/5/3 184/5/3 186/5/3
f 189/5/3 187/5/3 183/5/3
f 189/5/3 188/5/3 187/5/3
f 190/5/3 184/5/3 188/5/3
f 190/5/3 188/5/3 189/5/3
f 191/9/3 190/9/3 189/9/3
f 192/9/3 190/9/3 191/9/3
f 193/9/3 191/9/3 189/9/3
f 194/9/3 190/9/3 192/9/3
f 195/9/3 193/9/3 189/9/3
f 195/9/3 194/9/3 193/9/3
f 196/9/3 190/9/3 194/9/3
f 196/9/3 194/9/3 195/9/3
f 197/8/3 196/8/3 195/8/3
f 198/8/3 196/8/3 197/8/3
f 199/8/3 197/8/3 195/8/3
f 200/8/3 196/8/3 198/8/3
f 201/8/3 199/8/3 195/8/3
f 201/8/3 200/8/3 199/8/3
f 202/8/3 196/8/3 200/8/3
f 202/8/3 200/8/3 201/8/3
f 203/3/3 202/3/3 201/3/3
f 204/3/3 202/3/3 203/3/3
f 208/6/3 206/6/3 205/6/3
f 209/6/3 206/6/3 208/6/3
f 211/6/3 208/6/3 207/6/3
f 212/6/3 208/6/3 211/6/3
f 213/6/3 210/6/3 209/6/3
f 214/6/3 210/6/3 213/6/3
f 215/6/3 213/6/3 212/6/3
f 216/6/3 213/6/3 215/6/3
f 217/6/4 218/6/4 220/6/4
f 220/6/4 218/6/4 221/6/4
f 219/6/4 220/6/4 223/6/4
f 223/6/4 220/6/4 224/6/4
f 221/6/4 222/6/4 225/6/4
f 225/6/4 222/6/4 226/6/4
f 224/6/4 225/6/4 227/6/4
f 227/6/4 225/6/4 228/6/4
f 229/3/4 230/3/4 231/3/4
f 231/3/4 230/3/4 232/3/4
f 233/4/4 234/4/4 235/4/4
f 235/4/4 234/4/4 236/4/4
f 235/3/4 236/3/4 237/3/4
f 237/3/4 236/3/4 238/3/4
f 239/3/4 240/3/4 241/3/4
f 241/3/4 240/3/4 242/3/4
f 239/3/4 241/3/4 243/3/4
f 243/3/4 241/3/4 244/3/4
f 242/3/4 240/3/4 245/3/4
f 244/3/4 245/3/4 247/3/4
f 247/3/4 245/3/4 248/3/4
f 246/3/4 247/3/4 248/3/4
f 245/3/4 240/3/4 249/3/4
f 248/3/4 245/3/4 249/3/4
f 246/3/4 248/3/4 250/3/4
f 249/3/4 240/3/4 251/3/4
f 246/3/4 250/3/4 252/3/4
f 250/3/4 251/3/4 252/3/4
f 251/3/4 240/3/4 253/3/4
f 252/3/4 251/3/4 253/3/4
f 246/3/4 252/3/4 254/3/4
f 253/3/4 240/3/4 255/3/4
f 246/3/4 254/3/4 256/3/4
f 254/3/4 255/3/4 256/3/4
f 255/3/4 240/3/4 257/3/4
f 256/3/4 255/3/4 257/3/4
f 246/3/4 256/3/4 258/3/4
f 257/3/4 240/3/4 259/3/4
f 246/3/4 258/3/4 260/3/4
f 258/3/4 259/3/4 260/3/4
f 259/3/4 240/3/4 261/3/4
f 260/3/4 259/3/4 261/3/4
f 260/6/4 261/6/4 262/6/4
f 262/6/4 261/6/4 263/6/4
f 260/6/4 262/6/4 264/6/4
f 263/6/4 261/6/4 265/6/4
f 260/6/4 264/6/4 266/6/4
f 264/6/4 265/6/4 266/6/4
f 265/6/4 261/6/4 267/6/4
f 266/6/4 265/6/4 267/6/4
f 266/3/4 267/3/4 268/3/4
f 268/3/4 267/3/4 269/3/4
f 266/3/4 268/3/4 270/3/4
f 269/3/4 267/3/4 271/3/4
f 266/3/4 270/3/4 272/3/4
f 270/4/4 271/4/4 272/4/4
f 271/3/4 267/3/4 273/3/4
f 272/4/4 271/4/4 273/4/4
f 266/3/4 272/3/4 274/3/4
f 272/3/4 273/3/4 274/3/4
f 273/3/4 267/3/4 275/3/4
f 274/3/4 273/3/4 275/3/4
f 266/3/4 274/3/4 276/3/4
f 276/3/4 274/3/4 277/3/4
f 275/3/4 267/3/4 278/3/4
f 276/4/4 277/4/4 279/4/4
f 277/4/4 278/4/4 279/4/4
f 278/3/4 267/3/4 280/3/4
f 279/4/4 278/4/4 280/4/4
f 279/3/4 280/3/4 281/3/4
f 280/3/4 267/3/4 282/3/4
f 281/3/4 280/3/4 282/3/4
f 279/3/4 281/3/4 283/3/4
f 282/3/4 267/3/4 284/3/4
f 279/3/4 283/3/4 285/3/4
f 283/3/4 284/3/4 285/3/4
f 284/3/4 267/3/4 286/3/4
f 285/3/4 284/3/4 286/3/4
f 299/3/5 288/3/5 287/3/5
f 299/1/5 289/1/5 288/1/5
f 300/6/5 290/6/5 289/6/5
f 300/1/5 289/1/5 299/1/5
f 301/7/5 291/7/5 290/7/5
f 301/6/5 290/6/5 300/6/5
f 302/2/5 292/2/5 291/2/5
f 302/7/5 291/7/5 301/7/5
f 303/6/5 293/6/5 292/6/5
f 303/2/5 292/2/5 302/2/5
f 304/6/5 293/6/5 303/6/5
f 305/6/5 293/6/5 304/6/5
f 306/4/5 294/4/5 293/4/5
f 306/6/5 293/6/5 305/6/5
f 307/5/5 295/5/5 294/5/5
f 307/4/5 294/4/5 306/4/5
f 308/9/5 296/9/5 295/9/5
f 308/5/5 295/5/5 307/5/5
f 309/8/5 297/8/5 296/8/5
f 309/9/5 296/9/5 308/9/5
f 310/3/5 298/3/5 297/3/5
f 310/8/5 297/8/5 309/8/5
f 311/3/5 300/3/5 299/3/5
f 311/3/5 301/3/5 300/3/5
f 311/3/5 302/3/5 301/3/5
f 311/3/5 303/3/5 302/3/5
f 312/3/5 303/3/5 311/3/5
f 313/6/5 304/6/5 303/6/5
f 314/6/5 306/6/5 305/6/5
f 315/3/5 309/3/5 308/3/5
f 315/3/5 308/3/5 307/3/5
f 315/3/5 310/3/5 309/3/5
f 315/3/5 307/3/5 306/3/5
f 316/3/5 310/3/5 315/3/5
f 317/3/5 299/3/5 287/3/5
f 317/3/5 311/3/5 299/3/5
f 318/3/5 311/3/5 317/3/5
f 319/3/5 303/3/5 312/3/5
f 320/6/5 314/6/5 313/6/5
f 320/3/5 303/3/5 319/3/5
f 320/6/5 313/6/5 303/6/5
f 321/6/5 306/6/5 314/6/5
f 321/6/5 314/6/5 320/6/5
f 321/3/5 315/3/5 306/3/5
f 322/4/5 316/4/5 315/4/5
f 322/3/5 315/3/5 321/3/5
f 323/3/5 310/3/5 316/3/5
f 323/4/5 316/4/5 322/4/5
f 324/3/5 298/3/5 310/3/5
f 324/3/5 310/3/5 323/3/5
f 327/3/5 326/3/5 325/3/5
f 328/3/5 326/3/5 327/3/5
f 347/1/5 330/1/5 329/1/5
f 348/1/5 330/1/5 347/1/5
f 349/6/5 332/6/5 331/6/5
f 350/6/5 332/6/5 349/6/5
f 351/7/5 334/7/5 333/7/5
f 352/7/5 334/7/5 351/7/5
f 353/2/5 336/2/5 335/2/5
f 354/2/5 336/2/5 353/2/5
f 356/6/5 338/6/5 337/6/5
f 357/6/5 338/6/5 356/6/5
f 359/4/5 340/4/5 339/4/5
f 360/4/5 340/4/5 359/4/5
f 361/5/5 342/5/5 341/5/5
f 362/5/5 342/5/5 361/5/5
f 363/9/5 344/9/5 343/9/5
f 364/9/5 344/9/5 363/9/5
f 365/8/5 346/8/5 345/8/5
f 366/8/5 346/8/5 365/8/5
f 367/6/5 356/6/5 355/6/5
f 368/6/5 356/6/5 367/6/5
f 369/6/5 358/6/5 357/6/5
f 370/6/5 358/6/5 369/6/5
f 371/3/5 362/3/5 361/3/5
f 373/3/5 364/3/5 363/3/5
f 374/3/5 348/3/5 347/3/5
f 375/3/5 348/3/5 374/3/5
f 376/3/5 350/3/5 349/3/5
f 377/3/5 350/3/5 376/3/5
f 378/3/5 352/3/5 351/3/5
f 379/3/5 352/3/5 378/3/5
f 380/3/5 354/3/5 353/3/5
f 381/3/5 354/3/5 380/3/5
f 382/6/5 369/6/5 368/6/5
f 383/6/5 369/6/5 382/6/5
f 384/3/5 360/3/5 359/3/5
f 385/3/5 360/3/5 384/3/5
f 386/3/5 372/3/5 371/3/5
f 386/3/5 373/3/5 372/3/5
f 386/3/5 371/3/5 361/3/5
f 387/3/5 364/3/5 373/3/5
f 387/3/5 373/3/5 386/3/5
f 388/3/5 366/3/5 365/3/5
f 389/3/5 366/3/5 388/3/5
f 390/1/6 391/1/6 408/1/6
f 408/1/6 391/1/6 409/1/6
f 392/6/6 393/6/6 410/6/6
f 410/6/6 393/6/6 411/6/6
f 394/7/6 395/7/6 412/7/6
f 412/7/6 395/7/6 413/7/6
f 396/2/6 397/2/6 414/2/6
f 414/2/6 397/2/6 415/2/6
f 398/6/6 399/6/6 417/6/6
f 417/6/6 399/6/6 418/6/6
f 400/4/6 401/4/6 420/4/6
f 420/4/6 401/4/6 421/4/6
f 402/5/6 403/5/6 422/5/6
f 422/5/6 403/5/6 423/5/6
f 404/9/6 405/9/6 424/9/6
f 424/9/6 405/9/6 425/9/6
f 406/8/6 407/8/6 426/8/6
f 426/8/6 407/8/6 427/8/6
f 416/6/6 417/6/6 428/6/6
f 428/6/6 417/6/6 429/6/6
f 418/6/6 419/6/6 430/6/6
f 430/6/6 419/6/6 431/6/6
f 422/3/6 423/3/6 432/3/6
f 424/3/6 425/3/6 434/3/6
f 408/3/6 409/3/6 435/3/6
f 435/3/6 409/3/6 436/3/6
f 410/3/6 411/3/6 437/3/6
f 437/3/6 411/3/6 438/3/6
f 412/3/6 413/3/6 439/3/6
f 439/3/6 413/3/6 440/3/6
f 414/3/6 415/3/6 441/3/6
f 441/3/6 415/3/6 442/3/6
f 429/6/6 430/6/6 443/6/6
f 443/6/6 430/6/6 444/6/6
f 420/3/6 421/3/6 445/3/6
f 445/3/6 421/3/6 446/3/6
f 432/3/6 433/3/6 447/3/6
f 433/3/6 434/3/6 447/3/6
f 422/3/6 432/3/6 447/3/6
f 434/3/6 425/3/6 448/3/6
f 447/3/6 434/3/6 448/3/6
f 426/3/6 427/3/6 449/3/6
f 449/3/6 427/3/6 450/3/6
f 451/3/6 452/3/6 463/3/6
f 452/1/6 453/1/6 463/1/6
f 453/6/6 454/6/6 464/6/6
f 463/1/6 453/1/6 464/1/6
f 454/7/6 455/7/6 465/7/6
f 464/6/6 454/6/6 465/6/6
f 455/2/6 456/2/6 466/2/6
f 465/7/6 455/7/6 466/7/6
f 456/6/6 457/6/6 467/6/6
f 466/2/6 456/2/6 467/2/6
f 467/6/6 457/6/6 468/6/6
f 468/6/6 457/6/6 469/6/6
f 457/4/6 458/4/6 470/4/6
f 469/6/6 457/6/6 470/6/6
f 458/5/6 459/5/6 471/5/6
f 470/4/6 458/4/6 471/4/6
f 459/9/6 460/9/6 472/9/6
f 471/5/6 459/5/6 472/5/6
f 460/8/6 461/8/6 473/8/6
f 472/9/6 460/9/6 473/9/6
f 461/3/6 462/3/6 474/3/6
f 473/8/6 461/8/6 474/8/6
f 467/6/6 468/6/6 475/6/6
f 469/6/6 470/6/6 476/6/6
f 451/3/6 463/3/6 477/3/6
f 463/3/6 464/3/6 477/3/6
f 464/3/6 465/3/6 477/3/6
f 465/3/6 466/3/6 477/3/6
f 466/3/6 467/3/6 477/3/6
f 475/6/6 476/6/6 478/6/6
f 477/3/6 467/3/6 478/3/6
f 467/6/6 475/6/6 478/6/6
f 472/3/6 473/3/6 479/3/6
f 478/6/6 476/6/6 479/6/6
f 471/3/6 472/3/6 479/3/6
f 470/3/6 471/3/6 479/3/6
f 476/6/6 470/6/6 479/6/6
f 473/3/6 474/3/6 479/3/6
f 474/3/6 462/3/6 480/3/6
f 479/3/6 474/3/6 480/3/6
